<svg id="svg17040" height="512" viewBox="0 0 16.933333 16.933334" width="512" xmlns="http://www.w3.org/2000/svg" xmlns:svg="http://www.w3.org/2000/svg"><g id="layer1" transform="translate(0 -280.067)"><path id="path9188" d="m1.3229162 280.59683c-.43516023 0-.79271553.35755-.79271553.79271v14.28699c0 .43516.3575553.7953.79271553.7953h14.2869838c.43516 0 .7953-.36014.7953-.7953v-14.28699c0-.43516-.36014-.79271-.7953-.79271zm0 .5271h14.2869838c.151156 0 .266134.11446.266134.26561v14.28699c0 .15116-.114978.26613-.266134.26613h-14.2869838c-.1511565 0-.2656179-.11497-.2656179-.26613v-14.28699c0-.15115.1144614-.26561.2656179-.26561zm3.1760346 1.05885a.26452647.26452647 0 0 0 -.2656179.26561v3.70314c0 2.06852 1.4796691 3.78551 3.4390675 4.15737v2.98689h-1.3218849c-.4351602 0-.7953004.35808-.7953004.79324v.52917a.26460982.26460982 0 0 0 .2661338.26561h5.2906341a.26460982.26460982 0 0 0 .265616-.26561v-.52917c0-.43516-.359622-.79324-.794782-.79324h-1.3224007v-2.98638c1.9600857-.37101 3.4395827-2.08861 3.4395827-4.15788v-3.70314a.26452647.26452647 0 0 0 -.263549-.26561h-3.7052004a.26452647.26452647 0 0 0 -.2361618.38292l.7379388 1.47846-.7441406 1.73995a.26452647.26452647 0 0 0 -.015505.16019l.2733675 1.23456-1.03301-1.33015.7322555-1.70895a.26452647.26452647 0 0 0 -.023257-.25218l-1.0588493-1.58595a.26452647.26452647 0 0 0 -.2206572-.11885z" font-variant-ligatures="normal" font-variant-position="normal" font-variant-caps="normal" font-variant-numeric="normal" font-variant-alternates="normal" font-feature-settings="normal" text-indent="0" text-align="start" text-decoration-line="none" text-decoration-style="solid" text-decoration-color="#000000" text-transform="none" text-orientation="mixed" white-space="normal" shape-padding="0" isolation="auto" mix-blend-mode="normal" solid-color="#000000" solid-opacity="1" vector-effect="none"/></g></svg>